<svg xmlns="http://www.w3.org/2000/svg" width="1024" height="1024" viewBox="0 0 1024 1024">
  <defs>
    <clipPath id="icon-mask">
      <rect width="1024" height="1024" rx="224" ry="224"/>
    </clipPath>
  </defs>
  <g clip-path="url(#icon-mask)">
    <!-- 00-background.svg -->
    <rect width="512" height="1024" fill="#1148D6"/>
    <rect x="512" width="512" height="1024" fill="#E8754E"/>

    <!-- 01-blueprint.svg -->
    <g fill="none" stroke="#FFFFFF" stroke-linecap="round" stroke-linejoin="round">
      <path stroke-width="22" d="M92 432 512 146 512 884 77 818 77 773 168 716 168 482Z"/>
      <path stroke-width="13" d="M92 432 512 146M168 482 512 248M168 716 512 771M77 773 512 842"/>
      <path stroke-width="12" d="M212 452v292M340 365v398M168 561h344M168 686h344"/>
      <path stroke-width="11" d="M92 432h76l344-234M77 773h91v-57M212 744v73M340 763v73"/>
      <path stroke-width="9" stroke-dasharray="28 20" d="M217 570h286M348 376 217 467v205M92 803l420 65"/>
      <path stroke-width="7" opacity=".55" d="M45 336h396M45 512h467M45 640h467M45 896h467M128 214v706M288 214v706M448 214v706"/>
    </g>

    <!-- 02-finished-house.svg -->
    <g stroke-linejoin="round">
      <path d="M512 146 918 421v354L512 842Z" fill="#F2EEE8" stroke="#FFF9F2" stroke-width="24"/>
      <path d="M512 248 850 477v250L512 771Z" fill="#394052"/>
      <path d="M512 146 918 421l-28 38L512 198Z" fill="#FFF9F2"/>
      <path d="M512 771 888 714l78 77-454 77Z" fill="#8B4C2D" stroke="#B97043" stroke-width="10"/>
    </g>

    <!-- 03-house-details.svg -->
    <g stroke-linejoin="round">
      <path d="M554 540 806 516v196l-252 39Z" fill="#F7B15E" stroke="#201E24" stroke-width="13"/>
      <path d="M680 528v204" fill="none" stroke="#201E24" stroke-width="12"/>
      <path d="M568 560 666 550v167l-98 15ZM694 545 792 536v158l-98 17Z" fill="#FFE5A8" opacity=".78"/>
      <g fill="none" stroke="#D99358" stroke-width="7" opacity=".8">
        <path d="m548 797 374-59M574 817l373-61M613 837l348-59"/>
      </g>
      <g fill="#4D8A50" stroke="#77AA62" stroke-width="7">
        <circle cx="900" cy="686" r="63"/><circle cx="951" cy="714" r="53"/><circle cx="913" cy="748" r="57"/>
      </g>
    </g>
  </g>
</svg>
